<svg xmlns="http://www.w3.org/2000/svg" viewBox="0 0 108.288 190.059">
<g id="Layer_2" data-name="Layer 2">
<g id="location">
    <path id="outline" d="M56.933,188.281l44.506-95.554a3.076,3.076,0,0,0-2.788-4.375h-89a3.076,3.076,0,0,0-2.789,4.374l44.491,95.555A3.076,3.076,0,0,0,56.933,188.281Z" fill="#472d30"/>
    <path id="outline" d="M108.288,62.543a70.584,70.584,0,0,1-4.811,25.809c-8.508,21.665-27.4,36.733-49.333,36.733-29.9,0-54.144-28-54.144-62.542S24.241,0,54.144,0,108.288,28,108.288,62.543Z" fill="#472d30"/>
    <path d="M54.864,182.077,98.781,87.79a1.007,1.007,0,0,0-.913-1.432H10.051a1.007,1.007,0,0,0-.913,1.432l43.9,94.287A1.006,1.006,0,0,0,54.864,182.077Z" fill="#e16c5b"/>
    <path d="M103.884,62.556a65.107,65.107,0,0,1-4.436,23.8c-7.847,19.98-25.267,33.876-45.5,33.876-27.578,0-49.933-25.823-49.933-57.678S26.374,4.878,53.952,4.878,103.884,30.7,103.884,62.556Z" fill="#e16c5b"/>
    <ellipse cx="54.216" cy="60.397" rx="45.66" ry="50.425" fill="#ffe1a8" stroke="#472d30" stroke-miterlimit="10" stroke-width="2.435"/>
    <path d="M63.305,46.386q-.318,15.694-.639,31.484H59.134v-1.1q-.006-5.546-.011-11.09a7.751,7.751,0,0,0-.858-3.89,4.06,4.06,0,0,0-3.686-2.272c-1.245-.01-2.491,0-3.813,0V77.876h-6c-.149-10.458-.3-20.933-.45-31.49ZM51,50.659c1.72,0,3.415.005,5.109-.011a.376.376,0,0,0,.265-.255c.019-.993.012-1.988.012-2.949H51Z" fill="#472d30"/>
    <path d="M56.481,37.478v3.36H51.128v-3.36Z" fill="#733d46"/><path d="M40.733,37.425h5.806v2.989H40.733Z" fill="#733d46"/>
    <path d="M66.741,40.517h-5.83V37.5h5.83Z" fill="#733d46"/>
    <path d="M43.375,55.947H36.53V53.465h6.845Z" fill="#733d46"/>
    <path d="M79.405,53.446v2.52h-6.69v-2.52Z" fill="#733d46"/>
    <path d="M27.635,53.455H34.1v2.5H27.752Z" fill="#733d46"/>
    <path d="M64.318,56.107V53.618h6.335v2.489Z" fill="#733d46"/>
    <path d="M18.164,77.879c-.46-8.372-.919-16.731-1.381-25.13h9.553v2.8h17.1c.066,7.485.133,14.894.2,22.331Zm21.02-9.915c0-.769.043-1.485-.009-2.194a5.347,5.347,0,0,0-1.067-3.262c-.875-1.018-1.963-1.368-3.086-.409a3.977,3.977,0,0,0-.962,1.293,7.336,7.336,0,0,0-.464,3.136c-.006.478,0,.957,0,1.436Zm-13.209.009c0-.528,0-1.011,0-1.494a8.891,8.891,0,0,0-.036-1.212,10.665,10.665,0,0,0-.384-1.842,2.76,2.76,0,0,0-2.27-1.866,2.665,2.665,0,0,0-2.428,1.9,14.9,14.9,0,0,0-.341,4.511Z" fill="#472d30"/>
    <path d="M63.826,77.877c.126-7.457.25-14.857.376-22.324H80.93v-2.8h9.744L89.3,77.877Zm23.68-9.912c-.071-1.137-.107-2.247-.223-3.349a4.535,4.535,0,0,0-.418-1.432,2.645,2.645,0,0,0-2.042-1.612,2.493,2.493,0,0,0-2.432,1.652,13.4,13.4,0,0,0-.449,4.741Zm-13.366,0c-.069-1.122-.142-2.187-.2-3.252a3.869,3.869,0,0,0-.867-2.271,2.144,2.144,0,0,0-2.985-.465,3.147,3.147,0,0,0-1.118,1.55,16.81,16.81,0,0,0-.39,4.438Z" fill="#472d30"/>
    <path d="M65.47,77.948H62.182V55.461H65.47Z" fill="#472d30"/>
    <path d="M45.956,77.948H42.668V55.461h3.288Z" fill="#472d30"/>
    <path d="M66.693,47.1H40.7v-6.7H66.693Z" fill="#472d30"/><path d="M62.325,57.605H46.341V47.1H62.325Z" fill="#472d30"/>
    <path d="M26.444,52.354H16.326v-5.6H26.444Z" fill="#733d46"/>
    <path d="M91.216,52.354H81.1v-5.6H91.216Z" fill="#733d46"/>
    <path d="M54.27,77.36q18.18,0,36.36.008a2.042,2.042,0,0,1,.825.209.706.706,0,0,1,.323.891,1.288,1.288,0,0,1-.537.63,1.363,1.363,0,0,1-.689.094q-16.73-.027-33.459-.06-14.079-.017-28.159,0-5.611,0-11.222.011c-.571,0-.875-.289-.869-.827a.9.9,0,0,1,.944-.955l17.517,0q9.483,0,18.966,0Z" fill="#733d46"/>
    </g>
    </g>
    </svg>