<svg xmlns="http://www.w3.org/2000/svg" viewBox="0 0 108.288 190.059"><g id="Layer_2" data-name="Layer 2"><g id="location"><path d="M56.933,188.281l44.506-95.554a3.076,3.076,0,0,0-2.788-4.375h-89a3.076,3.076,0,0,0-2.789,4.374l44.491,95.555A3.076,3.076,0,0,0,56.933,188.281Z" fill="#472d30"/><path d="M108.288,62.543a70.584,70.584,0,0,1-4.811,25.809c-8.508,21.665-27.4,36.733-49.333,36.733-29.9,0-54.144-28-54.144-62.542S24.241,0,54.144,0,108.288,28,108.288,62.543Z" fill="#472d30"/><path d="M54.864,182.077,98.781,87.79a1.007,1.007,0,0,0-.913-1.432H10.051a1.007,1.007,0,0,0-.913,1.432l43.9,94.287A1.006,1.006,0,0,0,54.864,182.077Z" fill="#e16c5b"/><path d="M103.884,62.556a65.107,65.107,0,0,1-4.436,23.8c-7.847,19.98-25.267,33.876-45.5,33.876-27.578,0-49.933-25.823-49.933-57.678S26.374,4.878,53.952,4.878,103.884,30.7,103.884,62.556Z" fill="#e16c5b"/><ellipse cx="55.384" cy="60.057" rx="45.66" ry="50.425" fill="#ffe1a8" stroke="#472d30" stroke-miterlimit="10" stroke-width="2.435"/></g><g id="defensive"><path d="M37.923,75.81c0,1.335,0,2.618-.007,3.9a.622.622,0,0,1-.163.386Q34.966,83,32.164,85.9c-.929.959-1.85,1.927-2.819,2.844a3.3,3.3,0,0,1-1.26.753,1.226,1.226,0,0,1-1.538-.606,1.624,1.624,0,0,1,.169-1.949q1.517-1.6,3.074-3.158,3.372-3.355,6.77-6.687C36.986,76.674,37.431,76.273,37.923,75.81Z" fill="#733d46"/><path d="M70.165,75.665c1.578,1.555,3.094,3.044,4.6,4.538q3.081,3.045,6.158,6.1a2.263,2.263,0,0,1,.86,1.965,1.239,1.239,0,0,1-.829,1.135,1.568,1.568,0,0,1-1.6-.24,5.764,5.764,0,0,1-.5-.489q-3.561-3.629-7.119-7.257a11.741,11.741,0,0,0-.832-.865,2.284,2.284,0,0,1-.752-1.967C70.178,77.64,70.165,76.7,70.165,75.665Z" fill="#733d46"/><path d="M37.514,90.517V63.24H70.522V90.517Z" fill="#472d30"/><rect x="27.517" y="50.711" width="9.255" height="8.521" transform="translate(-22.828 87.116) rotate(-90)" fill="#ffe1a8"/><path d="M82.472,47.268,84.11,45.53a1.643,1.643,0,0,0,2.657-.742c.756-1.762,1.5-3.528,2.248-5.293a.175.175,0,0,0,0-.075q-2.544,1.23-5.1,2.466c-.59.286-1.211.547-1.4,1.273-.038.147-.1.347-.038.452.242.4-.022.593-.258.817-.5.47-.992.942-1.585,1.505l-4.663-4.4L73.714,43.9l4.565,4.657c-.31.332-.654.73-1.028,1.1q-2.679,2.629-5.372,5.244a1.331,1.331,0,0,0-.487,1.056c.03.858.009,1.717.009,2.5q4.337-4.266,8.82-8.677l5.25,5.172,2.682-2.129Z" fill="#733d46"/><rect x="70.96" y="44.033" width="19.681" height="8.521" transform="translate(117.248 135.085) rotate(-143.646)" fill="#ffe1a8"/><path d="M25.6,47.171l-1.638-1.739A1.643,1.643,0,0,1,21.3,44.69c-.756-1.761-1.5-3.528-2.248-5.293a.168.168,0,0,1,0-.074q2.543,1.23,5.1,2.466c.59.286,1.211.547,1.4,1.273.038.147.1.347.038.451-.242.4.022.594.258.818.5.47.992.942,1.585,1.5l4.663-4.4L34.354,43.8,29.789,48.46c.31.333.654.73,1.028,1.1q2.679,2.63,5.372,5.243a1.334,1.334,0,0,1,.487,1.057c-.03.857-.009,1.717-.009,2.5l-8.82-8.677L22.6,54.85l-2.682-2.129Z" fill="#733d46"/><rect x="17.427" y="43.936" width="19.681" height="8.521" transform="translate(-23.262 25.544) rotate(-36.354)" fill="#ffe1a8"/><line x1="23.014" y1="43.131" x2="38.951" y2="58.94" fill="#733d46" stroke="#733d46" stroke-miterlimit="10" stroke-width="2.7"/><line x1="85.054" y1="43.228" x2="69.117" y2="59.037" fill="#733d46" stroke="#733d46" stroke-miterlimit="10" stroke-width="2.7"/><path d="M52.211,43.433c0-2.691,0-5.331,0-7.971q0-1.353-.025-2.707c-.02-1.049.471-1.452,1.482-1.125a6.779,6.779,0,0,1,1.217.652,1.9,1.9,0,0,1,.3.263c.926.847,1.754,1.208,2.973.118.11-.1.238-.178.355-.264a5.585,5.585,0,0,0,3.144,1.778c-.023.045-.035.113-.069.127a9.8,9.8,0,0,0-2.747,2.209,3.632,3.632,0,0,1-5.476-.316v7.336h4.412v5.714h4.148V43.552h8.631V60.885H37.525V43.542h8.436v5.7h4.3V43.56Z" fill="#472d30"/><rect x="43.129" y="29.194" width="23.66" height="14.358" fill="#ffe1a8"/></g></g></svg>