<svg xmlns="http://www.w3.org/2000/svg" viewBox="0 0 156 172.031"><g id="Layer_2" data-name="Layer 2"><g id="fortress"><path d="M78,169.031C-10.111,142.7,3.8,25.615,3.8,25.615L78,3l74.2,22.615S166.111,142.7,78,169.031Z" fill="#c8caa3" stroke="#472d30" stroke-linecap="round" stroke-linejoin="round" stroke-width="6"/><path d="M27.157,112.718c-.647-11.785-1.294-23.553-1.943-35.376H38.661v3.94H62.735c.094,10.536.187,20.966.28,31.436ZM56.748,98.761c0-1.084.061-2.091-.013-3.089a7.527,7.527,0,0,0-1.5-4.593C54,89.647,52.469,89.154,50.889,90.5a5.613,5.613,0,0,0-1.354,1.821,10.331,10.331,0,0,0-.654,4.414c-.007.673,0,1.346,0,2.022Zm-18.594.012c0-.743,0-1.423,0-2.1a12.6,12.6,0,0,0-.051-1.707,15,15,0,0,0-.54-2.593,3.885,3.885,0,0,0-3.2-2.626,3.751,3.751,0,0,0-3.418,2.679c-.671,2.069-.453,4.207-.48,6.35Z" fill="#472d30"/><path d="M91.437,112.716c.177-10.5.352-20.916.53-31.426h23.548V77.341h13.717q-.969,17.687-1.938,35.375Zm33.335-13.954c-.1-1.6-.151-3.164-.314-4.715a6.384,6.384,0,0,0-.588-2.016A3.724,3.724,0,0,0,121,89.762a3.511,3.511,0,0,0-3.425,2.326c-.8,2.164-.628,4.414-.631,6.674Zm-18.815,0c-.1-1.581-.2-3.079-.28-4.579a5.457,5.457,0,0,0-1.221-3.2,3.015,3.015,0,0,0-4.2-.653,4.42,4.42,0,0,0-1.574,2.181c-.641,2.038-.46,4.133-.548,6.248Z" fill="#472d30"/><path d="M90.7,68.385q-.448,22.093-.9,44.321H84.832v-1.547l-.015-15.61a10.914,10.914,0,0,0-1.208-5.477,5.713,5.713,0,0,0-5.189-3.2c-1.753-.015-3.506,0-5.368,0v25.843H64.6c-.211-14.722-.422-29.469-.634-44.329ZM73.385,74.4c2.421,0,4.807.006,7.192-.016a.529.529,0,0,0,.373-.359c.027-1.4.017-2.8.017-4.151H73.385Z" fill="#472d30"/><path d="M95.713,66.588H59.1v-9.57a8.879,8.879,0,0,1,1.083-.08c5.171.212,10.34.492,15.513.631,2.656.072,5.32-.093,7.98-.169,2.53-.072,5.059-.185,7.589-.247,1.456-.036,2.914-.006,4.453-.006Z" fill="#472d30"/><path d="M77.985,115.356q25.593,0,51.185.012a2.869,2.869,0,0,1,1.162.294,1,1,0,0,1,.454,1.255,1.812,1.812,0,0,1-.756.886,1.911,1.911,0,0,1-.97.132q-23.552-.038-47.1-.084-19.82-.023-39.64,0-7.9,0-15.8.016c-.8,0-1.232-.406-1.223-1.165a1.261,1.261,0,0,1,1.328-1.344l24.66.008h26.7Z" fill="#733d46"/><path d="M25.144,76.5V69.189H39.387V76.5Zm7.8-5.908L31.069,70.5v2.251h1.874Z" fill="#733d46"/><path d="M129.451,75.816H115.3V68.474h14.153Zm-6.274-5.967h-2v2.185h2Z" fill="#733d46"/><path d="M81.1,51.715v4.73H73.562v-4.73Z" fill="#733d46"/><path d="M59.118,51.64h8.173v4.207H59.118Z" fill="#733d46"/><path d="M95.638,55.862H87.43v-4.25h8.208Z" fill="#733d46"/><path d="M62.166,80.628H52.529V77.134h9.637Z" fill="#733d46"/><path d="M113.368,77.1v3.547h-9.417V77.1Z" fill="#733d46"/><path d="M40.491,77.112H49.6v3.526H40.655Z" fill="#733d46"/><path d="M92.13,80.637v-3.5h8.918v3.5Z" fill="#733d46"/></g></g></svg>