<svg xmlns="http://www.w3.org/2000/svg" viewBox="0 0 60.71 106.554"><g id="Layer_2" data-name="Layer 2"><g id="location"><path d="M31.919,105.558,56.871,51.986a1.724,1.724,0,0,0-1.563-2.452H5.412a1.724,1.724,0,0,0-1.563,2.452l24.943,53.572A1.725,1.725,0,0,0,31.919,105.558Z" fill="#472d30"/><path d="M60.71,35.064a39.565,39.565,0,0,1-2.7,14.47c-4.77,12.146-15.36,20.594-27.658,20.594C13.59,70.128,0,54.429,0,35.064S13.59,0,30.355,0,60.71,15.7,60.71,35.064Z" fill="#472d30"/><path d="M30.833,97.324,53.581,48.485a.522.522,0,0,0-.473-.742H7.62a.522.522,0,0,0-.473.742l22.74,48.839A.522.522,0,0,0,30.833,97.324Z" fill="#c8caa3"/><path d="M56.224,35.414a33.717,33.717,0,0,1-2.3,12.329C49.862,58.092,40.839,65.29,30.36,65.29,16.075,65.29,4.5,51.914,4.5,35.414S16.075,5.538,30.36,5.538,56.224,18.914,56.224,35.414Z" fill="#c8caa3"/><circle cx="30.355" cy="34.064" r="16.868" fill="#472d30"/></g></g></svg>