<svg xmlns="http://www.w3.org/2000/svg" viewBox="0 0 147.182 147.182"><g id="Layer_2" data-name="Layer 2"><g id="layer"><rect width="147.182" height="147.182" fill="#c8caa3"/><path d="M74.452,65.73,128.241,87.7a2.276,2.276,0,0,1,.019,4.207L74.471,114.448a2.276,2.276,0,0,1-1.76,0L18.921,91.909A2.277,2.277,0,0,1,18.94,87.7L72.73,65.73A2.281,2.281,0,0,1,74.452,65.73Z" fill="#ffe1a8" stroke="#472d30" stroke-miterlimit="10" stroke-width="3"/><path d="M74.078,50.73,127.868,72.7a2.277,2.277,0,0,1,.019,4.207L74.1,99.448a2.276,2.276,0,0,1-1.76,0L18.548,76.909a2.276,2.276,0,0,1,.018-4.207L72.356,50.73A2.281,2.281,0,0,1,74.078,50.73Z" fill="#ffe1a8" stroke="#472d30" stroke-miterlimit="10" stroke-width="3"/><path d="M74.078,35.73,127.868,57.7a2.277,2.277,0,0,1,.019,4.207L74.1,84.448a2.276,2.276,0,0,1-1.76,0L18.548,61.909a2.276,2.276,0,0,1,.018-4.207L72.356,35.73A2.281,2.281,0,0,1,74.078,35.73Z" fill="#ffe1a8" stroke="#472d30" stroke-miterlimit="10" stroke-width="3"/></g></g></svg>