<svg xmlns="http://www.w3.org/2000/svg" viewBox="0 0 156 172.298"><g id="Layer_2" data-name="Layer 2"><g id="Layer_10" data-name="Layer 10"><path d="M78,169.167C-10.111,142.831,3.8,25.751,3.8,25.751L78,3.136l74.2,22.615S166.111,142.831,78,169.167Z" fill="#c8caa3" stroke="#733d46" stroke-miterlimit="10" stroke-width="6"/><path d="M40.559,71.43h2.923c1.158-6.868,2.308-13.694,3.432-20.369,1.085,6.645,2.2,13.465,3.33,20.4h2.812c0,1.618,0,3.129-.006,4.64a.374.374,0,0,1-.148.245,5.217,5.217,0,0,0-2.052,4.148c-.12,2.589-.032,5.187-.032,7.859h6.446c0-.3,0-.621,0-.94-.028-1.794.011-3.592-.113-5.379a3.07,3.07,0,0,0-1.82-2.691l-.145-3.121a10.431,10.431,0,0,1,1.258.01c.605.077.817-.189.808-.751-.011-.668,0-1.336,0-2.037h6.793v2.708l2.088.133c0,.734.007,1.421-.009,2.107a.416.416,0,0,1-.179.286,4,4,0,0,0-1.853,3.249c-.121,2.09-.032,4.192-.032,6.382h3.675V85.077h3.675c0-.562,0-1.072,0-1.581.013-5.367.019-10.733.046-16.1a2.815,2.815,0,0,0-2.7-2.471c-.881,0-1.762.088-2.755.144V54h4.647v5.04h4.417V55.924h8.252V59.1h4.375V54.063H92.91V65.108c-.941-.068-1.816-.176-2.692-.186a2.813,2.813,0,0,0-2.837,2.8q0,8.052,0,16.1c0,.409,0,.819,0,1.315H90.53v3.228h3.96c.06-.081.107-.115.107-.149,0-2.138.06-4.281-.055-6.414a3.28,3.28,0,0,0-1.492-2.476,1.746,1.746,0,0,1-.63-1.046,13.467,13.467,0,0,1-.028-2.06c.519,0,1.052-.025,1.581.008.436.026.586-.175.586-.566V73.448h6.154c0,.752.026,1.419-.008,2.083-.028.557.22.721.734.694.536-.029,1.076-.006,1.573-.006,0,.914.006,1.768,0,2.621,0,.164-.012.407-.113.476a3.17,3.17,0,0,0-1.141,2.825c-.053,2.032-.015,4.066-.015,6.163.6.029,1.181.071,1.76.079,1.147.016,2.3,0,3.441.026.436.01.619-.107.609-.579-.052-2.488-.02-4.98-.134-7.465a5.676,5.676,0,0,0-2.051-4.11c-.054-.047-.155-.094-.155-.141-.009-1.546-.007-3.092-.007-4.7h2.874c1.141-6.821,2.273-13.591,3.357-20.071,1.2,6.467,2.45,13.241,3.709,20.048l2.633.157c.075,1.59-.014,3.167.089,4.977a7.4,7.4,0,0,0-1.693,5.02,58.68,58.68,0,0,0,1.086,11.051c.591,3.011.973,6.062,1.477,9.091.44,2.645.939,5.28,1.377,7.925.3,1.838.549,3.687.829,5.589l11,3.986H86.111c-.054-1.672-.066-3.226-.164-4.774-.17-2.672-.244-5.363-.639-8a10.359,10.359,0,0,0-2.928-6.025,4.419,4.419,0,0,0-6.59.217,12.734,12.734,0,0,0-2.876,7.13c-.369,3.784-.508,7.59-.752,11.482H27.1l10.425-3.791c.356-2.134.693-4.1,1.012-6.069q.628-3.879,1.236-7.761.47-2.964.934-5.928c.341-2.188.638-4.384,1.023-6.563a45.222,45.222,0,0,0,.387-8.147,7.006,7.006,0,0,0-1.217-3.9,1.858,1.858,0,0,1-.341-1.3c.1-1.2.012-2.42,0-3.631C40.558,71.909,40.559,71.7,40.559,71.43ZM82.756,91.2a1.585,1.585,0,0,0,.074-.3c-.022-2.55,0-5.1-.1-7.648a4.724,4.724,0,0,0-1.259-2.993,2.481,2.481,0,0,0-2.893-.874,3.906,3.906,0,0,0-2.413,3.421c-.17,2.755-.107,5.524-.138,8.288,0,.034.043.068.071.109Z" fill="#733d46"/><path d="M79.031,24.377l.176,3.157a28.608,28.608,0,0,1,6.248.034A3.553,3.553,0,0,0,83.4,29.586a2.9,2.9,0,0,1-4.048,1.177,2.728,2.728,0,0,0,.484,1.981c1.466,3.1,2.9,6.209,4.361,9.31q2.352,5,4.724,9.986c.071.15.132.3.2.463H69.154c.575-1.261,1.082-2.4,1.612-3.533q2.559-5.453,5.128-10.9,1.41-3.009,2.783-6.034a1.405,1.405,0,0,0,.062-.561q.006-3.564,0-7.127Z" fill="#733d46"/><path d="M13.753,140.343l-.671-.03V139.1l.671-.057Z" fill="#733d46"/></g></g></svg>